<?xml version="1.0" encoding="utf-8"?>
<!-- Generator: Adobe Illustrator 27.5.0, SVG Export Plug-In . SVG Version: 6.00 Build 0)  -->
<svg version="1.1" xmlns="http://www.w3.org/2000/svg" xmlns:xlink="http://www.w3.org/1999/xlink" x="0px" y="0px"
	 viewBox="0 0 2200 2200" style="enable-background:new 0 0 2200 2200;" xml:space="preserve">
<g id="background">
	<rect y="0" style="fill:#FFFFFF;" width="2200" height="2200"/>
</g>
<g id="Objects">
	<g>
		<g>
			<path style="fill:#276FE2;" d="M1798.038,1300.434c-31.434-14.818-68.933-1.345-83.749,30.093
				c-54.131,114.847-139.234,212.106-246.108,281.262c-109.634,70.942-236.948,108.44-368.181,108.44
				c-91.653,0-180.53-17.937-264.165-53.311c-80.813-34.182-153.403-83.128-215.755-145.48
				c-62.352-62.352-111.299-134.943-145.479-215.755c-35.375-83.634-53.311-172.513-53.311-264.165h45.852
				c24.657,0,38.695-28.187,23.839-47.865L382.202,849.56c-11.951-15.83-35.727-15.83-47.678,0L225.745,993.653
				c-14.856,19.679-0.818,47.865,23.839,47.865h45.851c0,108.588,21.281,213.961,63.253,313.191
				c40.526,95.815,98.529,181.852,172.399,255.721c73.869,73.869,159.906,131.873,255.721,172.399
				c99.231,41.971,204.603,63.253,313.191,63.253c155.547,0,306.505-44.48,436.553-128.632
				c126.602-81.923,227.429-197.164,291.578-333.267C1842.948,1352.747,1829.475,1315.251,1798.038,1300.434z"/>
			<path style="fill:#276FE2;" d="M1950.416,1041.518h-45.851c0-108.587-21.281-213.961-63.253-313.192
				c-40.526-95.815-98.53-181.852-172.399-255.721s-159.906-131.873-255.721-172.399c-99.231-41.971-204.603-63.252-313.191-63.252
				c-155.548,0-306.504,44.479-436.549,128.629c-126.6,81.921-227.427,197.164-291.581,333.27
				c-14.817,31.436-1.346,68.933,30.091,83.75c31.437,14.819,68.932,1.345,83.75-30.091
				c54.136-114.852,139.24-212.112,246.112-281.267c109.63-70.94,236.944-108.437,368.177-108.437
				c91.653,0,180.53,17.936,264.165,53.311c80.813,34.181,153.403,83.127,215.755,145.48
				c62.352,62.352,111.299,134.943,145.48,215.755c35.374,83.634,53.311,172.513,53.311,264.165h-45.852
				c-24.657,0-38.695,28.187-23.839,47.865l108.778,144.093c11.951,15.83,35.727,15.83,47.678,0l108.778-144.093
				C1989.11,1069.705,1975.072,1041.518,1950.416,1041.518z"/>
			<path style="fill:#A1B1C9;" d="M1100,563.052c7.542,0,13.656-6.114,13.656-13.656v-55.445c0-7.542-6.115-13.656-13.656-13.656
				c-7.542,0-13.656,6.114-13.656,13.656v55.445C1086.344,556.937,1092.458,563.052,1100,563.052z"/>
			<path style="fill:#A1B1C9;" d="M840.586,610.409c1.687,2.921,4.747,4.554,7.893,4.554c1.545,0,3.11-0.393,4.544-1.221
				c4.354-2.514,5.847-8.082,3.333-12.436l-17.343-30.039c-2.515-4.355-8.083-5.846-12.437-3.333
				c-4.354,2.514-5.847,8.082-3.333,12.436L840.586,610.409z"/>
			<path style="fill:#A1B1C9;" d="M629.747,780.53l30.04,17.343c1.433,0.828,2.999,1.221,4.544,1.221
				c3.146,0,6.206-1.633,7.893-4.554c2.514-4.354,1.021-9.922-3.333-12.436l-30.04-17.343c-4.353-2.514-9.921-1.022-12.437,3.333
				C623.901,772.449,625.393,778.016,629.747,780.53z"/>
			<path style="fill:#A1B1C9;" d="M626.414,1314.942c1.687,2.921,4.747,4.554,7.893,4.554c1.545,0,3.11-0.393,4.544-1.221
				l30.04-17.342c4.354-2.515,5.847-8.082,3.333-12.437c-2.515-4.355-8.084-5.847-12.437-3.333l-30.04,17.343
				C625.393,1305.02,623.901,1310.588,626.414,1314.942z"/>
			<path style="fill:#A1B1C9;" d="M826.576,1515.104c1.434,0.828,2.999,1.221,4.544,1.221c3.146,0,6.206-1.633,7.893-4.554
				l17.343-30.04c2.514-4.354,1.021-9.922-3.333-12.437c-4.355-2.514-9.922-1.023-12.437,3.333l-17.343,30.04
				C820.73,1507.022,822.222,1512.59,826.576,1515.104z"/>
			<path style="fill:#A1B1C9;" d="M1346.978,1469.295c-4.354,2.514-5.847,8.082-3.333,12.437l17.343,30.04
				c1.687,2.921,4.746,4.554,7.893,4.554c1.545,0,3.11-0.393,4.544-1.221c4.354-2.514,5.847-8.082,3.333-12.437l-17.343-30.04
				C1356.899,1468.272,1351.33,1466.781,1346.978,1469.295z"/>
			<path style="fill:#A1B1C9;" d="M1531.109,1300.933l30.04,17.342c1.434,0.828,2.999,1.221,4.544,1.221
				c3.146,0,6.206-1.633,7.893-4.554c2.514-4.354,1.021-9.922-3.333-12.437l-30.04-17.343c-4.355-2.514-9.922-1.022-12.437,3.333
				C1525.263,1292.851,1526.755,1298.418,1531.109,1300.933z"/>
			<path style="fill:#A1B1C9;" d="M1535.669,799.095c1.545,0,3.11-0.393,4.544-1.221l30.04-17.343
				c4.354-2.514,5.847-8.082,3.333-12.436c-2.515-4.355-8.083-5.847-12.437-3.333l-30.04,17.343
				c-4.354,2.514-5.847,8.082-3.333,12.436C1529.463,797.462,1532.523,799.095,1535.669,799.095z"/>
			<path style="fill:#A1B1C9;" d="M1351.521,614.963c3.146,0,6.206-1.633,7.893-4.554l17.343-30.039
				c2.514-4.354,1.021-9.922-3.333-12.436c-4.353-2.515-9.921-1.023-12.437,3.333l-17.343,30.039
				c-2.514,4.354-1.021,9.922,3.333,12.436C1348.411,614.57,1349.977,614.963,1351.521,614.963z"/>
			<path style="fill:#A1B1C9;" d="M607.876,1055.175c7.542,0,13.656-6.115,13.656-13.656c0-7.542-6.115-13.656-13.656-13.656
				h-55.445c-7.542,0-13.656,6.114-13.656,13.656c0,7.542,6.115,13.656,13.656,13.656H607.876z"/>
			<path style="fill:#A1B1C9;" d="M1086.344,1533.642v55.445c0,7.542,6.115,13.656,13.656,13.656
				c7.542,0,13.656-6.115,13.656-13.656v-55.445c0-7.542-6.115-13.656-13.656-13.656
				C1092.458,1519.986,1086.344,1526.1,1086.344,1533.642z"/>
			<path style="fill:#A1B1C9;" d="M1592.124,1055.175h55.445c7.542,0,13.656-6.115,13.656-13.656
				c0-7.542-6.115-13.656-13.656-13.656h-55.445c-7.542,0-13.656,6.114-13.656,13.656
				C1578.467,1049.06,1584.582,1055.175,1592.124,1055.175z"/>
			<path style="fill:#131C28;" d="M1034.36,1041.518c0,36.252,29.388,65.64,65.64,65.64c14.586,0,28.055-4.764,38.952-12.812
				l223.334,107.17c6.197,2.982,13.778,0.89,17.512-5.076c4.007-6.403,2.065-14.843-4.339-18.85l-210.002-131.416
				c0.108-1.54,0.183-3.089,0.183-4.656c0-26.094-15.227-48.63-37.28-59.211l-14.704-353.259c-0.312-7.01-5.947-12.79-13.088-13.088
				c-7.542-0.314-13.911,5.546-14.224,13.088c0,0-9.955,239.166-14.704,353.259C1049.588,992.889,1034.36,1015.424,1034.36,1041.518
				z"/>
		</g>
		<ellipse style="fill:#D9DFE8;" cx="1100" cy="1936.463" rx="531.494" ry="26.583"/>
	</g>
</g>
</svg>
